<svg width="133" height="30" viewBox="0 0 133 30" fill="none" xmlns="http://www.w3.org/2000/svg">
<path d="M0.8 29V28.6L1.6 28.32C2.50667 28.0267 2.96 27.2667 2.96 26.04V5.56C2.96 5.02667 2.89333 4.6 2.76 4.28C2.65333 3.96 2.34667 3.69333 1.84 3.48L0.8 3V2.6H8.52L15.92 21.96L22.88 2.6H30.76V3L30.12 3.24C29.6133 3.42667 29.2667 3.69333 29.08 4.04C28.8933 4.36 28.8 4.78667 28.8 5.32V26.24C28.8 26.7733 28.8667 27.1867 29 27.48C29.1333 27.7733 29.4533 28.0267 29.96 28.24L30.76 28.6V29H20.8V28.6L21.64 28.24C22.1467 28.0267 22.4667 27.7733 22.6 27.48C22.7333 27.1867 22.8 26.7733 22.8 26.24V17.24L22.88 5.8L14.52 29H12.52L3.8 6.08L3.92 16.04V26.12C3.92 26.7067 4 27.1867 4.16 27.56C4.34667 27.9067 4.69333 28.16 5.2 28.32L6.08 28.6V29H0.8ZM37.4994 29.6C35.9527 29.6 34.646 29.16 33.5794 28.28C32.5394 27.4 32.0194 26.1333 32.0194 24.48C32.0194 23.2267 32.6594 22.08 33.9394 21.04C35.2194 19.9733 37.2327 19.1733 39.9794 18.64C40.406 18.56 40.886 18.48 41.4194 18.4C41.9527 18.2933 42.5127 18.1867 43.0994 18.08V14.92C43.0994 13.1067 42.8727 11.84 42.4194 11.12C41.9927 10.3733 41.3127 10 40.3794 10C39.7394 10 39.2327 10.2133 38.8594 10.64C38.486 11.04 38.246 11.7467 38.1394 12.76L38.0594 13.2C38.006 14.3467 37.726 15.1867 37.2194 15.72C36.7127 16.2533 36.086 16.52 35.3394 16.52C34.646 16.52 34.0727 16.3067 33.6194 15.88C33.166 15.4533 32.9394 14.88 32.9394 14.16C32.9394 13.0667 33.3127 12.1467 34.0594 11.4C34.8327 10.6533 35.846 10.0933 37.0994 9.72C38.3527 9.34667 39.7127 9.16 41.1794 9.16C43.5527 9.16 45.3794 9.74667 46.6594 10.92C47.966 12.0667 48.6194 13.9467 48.6194 16.56V25.4C48.6194 26.6 49.1794 27.2 50.2994 27.2H51.1794L51.5394 27.52C51.0327 28.16 50.4727 28.6533 49.8594 29C49.2727 29.3467 48.4327 29.52 47.3394 29.52C46.166 29.52 45.2327 29.2533 44.5394 28.72C43.8727 28.16 43.4327 27.4267 43.2194 26.52C42.4194 27.3733 41.5927 28.1067 40.7394 28.72C39.9127 29.3067 38.8327 29.6 37.4994 29.6ZM39.9394 27.16C40.4727 27.16 40.966 27.04 41.4194 26.8C41.8994 26.5333 42.4594 26.1333 43.0994 25.6V18.88C42.8327 18.9333 42.566 18.9867 42.2994 19.04C42.0327 19.0933 41.726 19.1467 41.3794 19.2C40.1527 19.52 39.166 20.0667 38.4194 20.84C37.6994 21.5867 37.3394 22.6 37.3394 23.88C37.3394 24.9733 37.5927 25.8 38.0994 26.36C38.606 26.8933 39.2194 27.16 39.9394 27.16ZM52.2844 29V28.6L52.8844 28.44C53.4177 28.28 53.7777 28.04 53.9644 27.72C54.1777 27.4 54.2844 26.9867 54.2844 26.48V13.96C54.2844 13.3733 54.1777 12.9467 53.9644 12.68C53.7777 12.3867 53.4177 12.1867 52.8844 12.08L52.2844 11.92V11.52L59.1644 9.2L59.5644 9.6L59.9244 13.04V13.36C60.2977 12.6133 60.7777 11.9333 61.3644 11.32C61.9777 10.68 62.6444 10.16 63.3644 9.76C64.111 9.36 64.8444 9.16 65.5644 9.16C66.5777 9.16 67.351 9.44 67.8844 10C68.4177 10.56 68.6844 11.2667 68.6844 12.12C68.6844 13.0267 68.4177 13.7333 67.8844 14.24C67.3777 14.72 66.7644 14.96 66.0444 14.96C64.9244 14.96 63.9377 14.4 63.0844 13.28L63.0044 13.2C62.7377 12.8267 62.431 12.6267 62.0844 12.6C61.7377 12.5467 61.4177 12.7067 61.1244 13.08C60.8577 13.32 60.631 13.6133 60.4444 13.96C60.2844 14.28 60.1244 14.6533 59.9644 15.08V26.24C59.9644 27.3067 60.431 27.9733 61.3644 28.24L62.6444 28.6V29H52.2844ZM69.2013 29V28.6L69.6813 28.44C70.6413 28.12 71.1213 27.4533 71.1213 26.44V5.04C71.1213 4.50667 71.0146 4.10667 70.8013 3.84C70.5879 3.54667 70.2146 3.33333 69.6813 3.2L69.1613 3.08V2.68L76.4813 0.959999L76.9613 1.32L76.8013 6.92V20.6C76.8013 21.5867 76.8013 22.5733 76.8013 23.56C76.8279 24.52 76.8413 25.48 76.8413 26.44C76.8413 26.9733 76.9479 27.4133 77.1613 27.76C77.3746 28.08 77.7346 28.32 78.2413 28.48L78.7613 28.6V29H69.2013ZM90.6466 29.6C88.6199 29.6 86.8599 29.1867 85.3666 28.36C83.8732 27.5067 82.7132 26.3067 81.8866 24.76C81.0866 23.2133 80.6866 21.4 80.6866 19.32C80.6866 17.24 81.1132 15.44 81.9666 13.92C82.8466 12.4 84.0332 11.2267 85.5266 10.4C87.0466 9.57333 88.7532 9.16 90.6466 9.16C92.5399 9.16 94.2332 9.57333 95.7266 10.4C97.2199 11.2 98.3932 12.36 99.2466 13.88C100.127 15.4 100.567 17.2133 100.567 19.32C100.567 21.4267 100.153 23.2533 99.3266 24.8C98.5266 26.32 97.3799 27.5067 95.8866 28.36C94.4199 29.1867 92.6732 29.6 90.6466 29.6ZM90.6466 28.8C91.5799 28.8 92.3266 28.5333 92.8866 28C93.4466 27.4667 93.8466 26.52 94.0866 25.16C94.3532 23.8 94.4866 21.88 94.4866 19.4C94.4866 16.8933 94.3532 14.96 94.0866 13.6C93.8466 12.24 93.4466 11.2933 92.8866 10.76C92.3266 10.2267 91.5799 9.96 90.6466 9.96C89.7132 9.96 88.9532 10.2267 88.3666 10.76C87.8066 11.2933 87.3932 12.24 87.1266 13.6C86.8866 14.96 86.7666 16.8933 86.7666 19.4C86.7666 21.88 86.8866 23.8 87.1266 25.16C87.3932 26.52 87.8066 27.4667 88.3666 28C88.9532 28.5333 89.7132 28.8 90.6466 28.8ZM110.289 29.12L104.129 12.2C103.836 11.3467 103.249 10.7467 102.369 10.4L101.689 10.16V9.76H111.489V10.16L110.889 10.32C109.849 10.64 109.502 11.28 109.849 12.24L113.569 23.56L116.889 14.76L116.129 12.48C115.942 11.8933 115.742 11.4533 115.529 11.16C115.342 10.84 115.089 10.6133 114.769 10.48L114.089 10.16V9.76H122.369V10.16L121.809 10.4C121.409 10.56 121.169 10.7733 121.089 11.04C121.009 11.3067 121.062 11.7067 121.249 12.24L124.929 23.36L128.729 12.32C129.102 11.3067 128.902 10.6667 128.129 10.4L127.249 10.16V9.76H132.049V10.16L131.089 10.44C130.636 10.5733 130.302 10.7867 130.089 11.08C129.902 11.3467 129.729 11.72 129.569 12.2L123.809 29.12H121.769L117.329 16.04L112.609 29.12H110.289Z" fill="white"/>
</svg>
